<mxfile host="app.diagrams.net" agent="Mozilla/5.0 (Windows NT 10.0; Win64; x64) AppleWebKit/537.36 (KHTML, like Gecko) Chrome/136.0.0.0 Safari/537.36" version="27.0.4">
  <diagram name="PÃ¡gina-1" id="emwyUzA-yqGJr40F6UjJ">
    <mxGraphModel grid="1" page="1" gridSize="10" guides="1" tooltips="1" connect="1" arrows="1" fold="1" pageScale="1" pageWidth="827" pageHeight="1169" math="0" shadow="0">
      <root>
        <mxCell id="0" />
        <mxCell id="1" parent="0" />
        <mxCell id="3XJ-CpBbAdkrWe-ieAcc-1" value="" style="endArrow=none;html=1;rounded=0;entryX=0;entryY=1;entryDx=0;entryDy=0;exitX=0.5;exitY=0;exitDx=0;exitDy=0;" edge="1" parent="1" source="3XJ-CpBbAdkrWe-ieAcc-3" target="3XJ-CpBbAdkrWe-ieAcc-25">
          <mxGeometry width="50" height="50" relative="1" as="geometry">
            <mxPoint x="-1385" y="-275" as="sourcePoint" />
            <mxPoint x="-1322.88" y="-270" as="targetPoint" />
          </mxGeometry>
        </mxCell>
        <mxCell id="3XJ-CpBbAdkrWe-ieAcc-2" value="status" style="text;html=1;align=center;verticalAlign=middle;whiteSpace=wrap;rounded=0;" vertex="1" parent="1">
          <mxGeometry x="-978.5" y="-603" width="40" height="30" as="geometry" />
        </mxCell>
        <mxCell id="3XJ-CpBbAdkrWe-ieAcc-3" value="formulario" style="text;html=1;align=center;verticalAlign=middle;whiteSpace=wrap;rounded=0;" vertex="1" parent="1">
          <mxGeometry x="-1430" y="-264.5" width="80" height="20" as="geometry" />
        </mxCell>
        <mxCell id="3XJ-CpBbAdkrWe-ieAcc-4" value="USUARIO" style="rounded=0;whiteSpace=wrap;html=1;" vertex="1" parent="1">
          <mxGeometry x="-1530" y="-636" width="120" height="60" as="geometry" />
        </mxCell>
        <mxCell id="3XJ-CpBbAdkrWe-ieAcc-5" value="data_resgate" style="text;html=1;align=center;verticalAlign=middle;whiteSpace=wrap;rounded=0;" vertex="1" parent="1">
          <mxGeometry x="-981.5" y="-563" width="80" height="30" as="geometry" />
        </mxCell>
        <mxCell id="3XJ-CpBbAdkrWe-ieAcc-6" value="" style="endArrow=none;html=1;rounded=0;entryX=0;entryY=0;entryDx=0;entryDy=0;exitX=0.936;exitY=0.561;exitDx=0;exitDy=0;exitPerimeter=0;" edge="1" parent="1" source="3XJ-CpBbAdkrWe-ieAcc-8" target="3XJ-CpBbAdkrWe-ieAcc-4">
          <mxGeometry width="50" height="50" relative="1" as="geometry">
            <mxPoint x="-1301.88" y="-648.1700000000001" as="sourcePoint" />
            <mxPoint x="-1956" y="-270" as="targetPoint" />
          </mxGeometry>
        </mxCell>
        <mxCell id="3XJ-CpBbAdkrWe-ieAcc-7" value="id_pet" style="text;html=1;align=center;verticalAlign=middle;whiteSpace=wrap;rounded=0;" vertex="1" parent="1">
          <mxGeometry x="-975" y="-730" width="40" height="30" as="geometry" />
        </mxCell>
        <mxCell id="3XJ-CpBbAdkrWe-ieAcc-8" value="id_usuario" style="text;html=1;align=center;verticalAlign=middle;resizable=0;points=[];autosize=1;strokeColor=none;fillColor=none;" vertex="1" parent="1">
          <mxGeometry x="-1640" y="-663" width="80" height="30" as="geometry" />
        </mxCell>
        <mxCell id="3XJ-CpBbAdkrWe-ieAcc-9" value="descricao" style="text;html=1;align=center;verticalAlign=middle;whiteSpace=wrap;rounded=0;" vertex="1" parent="1">
          <mxGeometry x="-983.5" y="-620" width="60" height="30" as="geometry" />
        </mxCell>
        <mxCell id="3XJ-CpBbAdkrWe-ieAcc-10" value="nome" style="text;html=1;align=center;verticalAlign=middle;whiteSpace=wrap;rounded=0;" vertex="1" parent="1">
          <mxGeometry x="-973.5" y="-713" width="30" height="30" as="geometry" />
        </mxCell>
        <mxCell id="3XJ-CpBbAdkrWe-ieAcc-11" value="porte" style="text;html=1;align=center;verticalAlign=middle;whiteSpace=wrap;rounded=0;" vertex="1" parent="1">
          <mxGeometry x="-973.5" y="-640" width="30" height="30" as="geometry" />
        </mxCell>
        <mxCell id="3XJ-CpBbAdkrWe-ieAcc-12" value="id_usuario" style="text;html=1;align=center;verticalAlign=middle;whiteSpace=wrap;rounded=0;" vertex="1" parent="1">
          <mxGeometry x="-978.5" y="-583" width="68.5" height="30" as="geometry" />
        </mxCell>
        <mxCell id="3XJ-CpBbAdkrWe-ieAcc-13" value="raca" style="text;html=1;align=center;verticalAlign=middle;whiteSpace=wrap;rounded=0;" vertex="1" parent="1">
          <mxGeometry x="-973.5" y="-660" width="30" height="30" as="geometry" />
        </mxCell>
        <mxCell id="3XJ-CpBbAdkrWe-ieAcc-14" value="idade" style="text;html=1;align=center;verticalAlign=middle;whiteSpace=wrap;rounded=0;" vertex="1" parent="1">
          <mxGeometry x="-975" y="-693" width="30" height="30" as="geometry" />
        </mxCell>
        <mxCell id="3XJ-CpBbAdkrWe-ieAcc-15" value="PET" style="rounded=0;whiteSpace=wrap;html=1;" vertex="1" parent="1">
          <mxGeometry x="-1150" y="-637" width="120" height="60" as="geometry" />
        </mxCell>
        <mxCell id="3XJ-CpBbAdkrWe-ieAcc-16" value="" style="endArrow=none;html=1;rounded=0;exitX=0;exitY=0.5;exitDx=0;exitDy=0;entryX=1;entryY=0;entryDx=0;entryDy=0;" edge="1" parent="1" source="3XJ-CpBbAdkrWe-ieAcc-7" target="3XJ-CpBbAdkrWe-ieAcc-15">
          <mxGeometry width="50" height="50" relative="1" as="geometry">
            <mxPoint x="-1170" y="-787" as="sourcePoint" />
            <mxPoint x="-1063" y="-792" as="targetPoint" />
          </mxGeometry>
        </mxCell>
        <mxCell id="3XJ-CpBbAdkrWe-ieAcc-17" value="" style="endArrow=none;html=1;rounded=0;exitX=0;exitY=0.5;exitDx=0;exitDy=0;entryX=1;entryY=0.75;entryDx=0;entryDy=0;" edge="1" parent="1" source="3XJ-CpBbAdkrWe-ieAcc-2" target="3XJ-CpBbAdkrWe-ieAcc-15">
          <mxGeometry width="50" height="50" relative="1" as="geometry">
            <mxPoint x="-1170" y="-804" as="sourcePoint" />
            <mxPoint x="-1034" y="-734" as="targetPoint" />
          </mxGeometry>
        </mxCell>
        <mxCell id="3XJ-CpBbAdkrWe-ieAcc-18" value="" style="endArrow=none;html=1;rounded=0;exitX=0;exitY=0.5;exitDx=0;exitDy=0;entryX=1;entryY=0.398;entryDx=0;entryDy=0;entryPerimeter=0;" edge="1" parent="1" source="3XJ-CpBbAdkrWe-ieAcc-13" target="3XJ-CpBbAdkrWe-ieAcc-15">
          <mxGeometry width="50" height="50" relative="1" as="geometry">
            <mxPoint x="-1200" y="-834" as="sourcePoint" />
            <mxPoint x="-1060" y="-761" as="targetPoint" />
          </mxGeometry>
        </mxCell>
        <mxCell id="3XJ-CpBbAdkrWe-ieAcc-19" value="" style="endArrow=none;html=1;rounded=0;exitX=0;exitY=0.5;exitDx=0;exitDy=0;entryX=0.998;entryY=0.9;entryDx=0;entryDy=0;entryPerimeter=0;" edge="1" parent="1" source="3XJ-CpBbAdkrWe-ieAcc-12" target="3XJ-CpBbAdkrWe-ieAcc-15">
          <mxGeometry width="50" height="50" relative="1" as="geometry">
            <mxPoint x="-1160" y="-794" as="sourcePoint" />
            <mxPoint x="-1054" y="-739" as="targetPoint" />
          </mxGeometry>
        </mxCell>
        <mxCell id="3XJ-CpBbAdkrWe-ieAcc-20" value="" style="endArrow=none;html=1;rounded=0;entryX=1;entryY=0.5;entryDx=0;entryDy=0;" edge="1" parent="1" source="3XJ-CpBbAdkrWe-ieAcc-11" target="3XJ-CpBbAdkrWe-ieAcc-15">
          <mxGeometry width="50" height="50" relative="1" as="geometry">
            <mxPoint x="-1190" y="-824" as="sourcePoint" />
            <mxPoint x="-1054" y="-754" as="targetPoint" />
          </mxGeometry>
        </mxCell>
        <mxCell id="3XJ-CpBbAdkrWe-ieAcc-21" value="" style="endArrow=none;html=1;rounded=0;exitX=0;exitY=0.5;exitDx=0;exitDy=0;entryX=1;entryY=1;entryDx=0;entryDy=0;" edge="1" parent="1" source="3XJ-CpBbAdkrWe-ieAcc-5" target="3XJ-CpBbAdkrWe-ieAcc-15">
          <mxGeometry width="50" height="50" relative="1" as="geometry">
            <mxPoint x="-1200" y="-697" as="sourcePoint" />
            <mxPoint x="-1054" y="-734" as="targetPoint" />
          </mxGeometry>
        </mxCell>
        <mxCell id="3XJ-CpBbAdkrWe-ieAcc-22" value="" style="endArrow=none;html=1;rounded=0;entryX=0.999;entryY=0.614;entryDx=0;entryDy=0;entryPerimeter=0;exitX=0;exitY=0.5;exitDx=0;exitDy=0;" edge="1" parent="1" source="3XJ-CpBbAdkrWe-ieAcc-9" target="3XJ-CpBbAdkrWe-ieAcc-15">
          <mxGeometry width="50" height="50" relative="1" as="geometry">
            <mxPoint x="-910" y="-600" as="sourcePoint" />
            <mxPoint x="-1044" y="-744" as="targetPoint" />
          </mxGeometry>
        </mxCell>
        <mxCell id="3XJ-CpBbAdkrWe-ieAcc-23" value="" style="endArrow=none;html=1;rounded=0;exitX=0;exitY=0.5;exitDx=0;exitDy=0;entryX=1.003;entryY=0.131;entryDx=0;entryDy=0;entryPerimeter=0;" edge="1" parent="1" source="3XJ-CpBbAdkrWe-ieAcc-10" target="3XJ-CpBbAdkrWe-ieAcc-15">
          <mxGeometry width="50" height="50" relative="1" as="geometry">
            <mxPoint x="-1210" y="-877" as="sourcePoint" />
            <mxPoint x="-1063" y="-772" as="targetPoint" />
          </mxGeometry>
        </mxCell>
        <mxCell id="3XJ-CpBbAdkrWe-ieAcc-24" value="" style="endArrow=none;html=1;rounded=0;exitX=0;exitY=0.5;exitDx=0;exitDy=0;entryX=1;entryY=0.25;entryDx=0;entryDy=0;" edge="1" parent="1" source="3XJ-CpBbAdkrWe-ieAcc-14" target="3XJ-CpBbAdkrWe-ieAcc-15">
          <mxGeometry width="50" height="50" relative="1" as="geometry">
            <mxPoint x="-1200" y="-857" as="sourcePoint" />
            <mxPoint x="-1070" y="-772" as="targetPoint" />
          </mxGeometry>
        </mxCell>
        <mxCell id="3XJ-CpBbAdkrWe-ieAcc-25" value="ADOCAO" style="rounded=0;whiteSpace=wrap;html=1;" vertex="1" parent="1">
          <mxGeometry x="-1341.38" y="-390" width="120" height="60" as="geometry" />
        </mxCell>
        <mxCell id="3XJ-CpBbAdkrWe-ieAcc-26" value="id_adocao" style="text;html=1;align=center;verticalAlign=middle;whiteSpace=wrap;rounded=0;" vertex="1" parent="1">
          <mxGeometry x="-1226.38" y="-304.5" width="60" height="19.5" as="geometry" />
        </mxCell>
        <mxCell id="3XJ-CpBbAdkrWe-ieAcc-27" value="data_adocao" style="text;html=1;align=center;verticalAlign=middle;whiteSpace=wrap;rounded=0;" vertex="1" parent="1">
          <mxGeometry x="-1365" y="-244.5" width="80" height="19.5" as="geometry" />
        </mxCell>
        <mxCell id="3XJ-CpBbAdkrWe-ieAcc-28" value="id_pet" style="text;html=1;align=center;verticalAlign=middle;whiteSpace=wrap;rounded=0;" vertex="1" parent="1">
          <mxGeometry x="-1309.5700000000002" y="-274.5" width="40" height="19.5" as="geometry" />
        </mxCell>
        <mxCell id="3XJ-CpBbAdkrWe-ieAcc-29" value="" style="endArrow=none;html=1;rounded=0;exitX=0.5;exitY=0;exitDx=0;exitDy=0;entryX=1;entryY=1;entryDx=0;entryDy=0;" edge="1" parent="1" source="3XJ-CpBbAdkrWe-ieAcc-26" target="3XJ-CpBbAdkrWe-ieAcc-25">
          <mxGeometry width="50" height="50" relative="1" as="geometry">
            <mxPoint x="-1469.88" y="-330" as="sourcePoint" />
            <mxPoint x="-1362.88" y="-335" as="targetPoint" />
          </mxGeometry>
        </mxCell>
        <mxCell id="3XJ-CpBbAdkrWe-ieAcc-30" value="" style="endArrow=none;html=1;rounded=0;exitX=0.5;exitY=0;exitDx=0;exitDy=0;entryX=0.25;entryY=1;entryDx=0;entryDy=0;" edge="1" parent="1" source="3XJ-CpBbAdkrWe-ieAcc-27" target="3XJ-CpBbAdkrWe-ieAcc-25">
          <mxGeometry width="50" height="50" relative="1" as="geometry">
            <mxPoint x="-1499.88" y="-377" as="sourcePoint" />
            <mxPoint x="-1363.88" y="-307" as="targetPoint" />
          </mxGeometry>
        </mxCell>
        <mxCell id="3XJ-CpBbAdkrWe-ieAcc-31" value="" style="endArrow=none;html=1;rounded=0;exitX=0.512;exitY=0.093;exitDx=0;exitDy=0;entryX=0.75;entryY=1;entryDx=0;entryDy=0;exitPerimeter=0;" edge="1" parent="1" source="3XJ-CpBbAdkrWe-ieAcc-48" target="3XJ-CpBbAdkrWe-ieAcc-25">
          <mxGeometry width="50" height="50" relative="1" as="geometry">
            <mxPoint x="-1509.88" y="-420" as="sourcePoint" />
            <mxPoint x="-1332.88" y="-315" as="targetPoint" />
          </mxGeometry>
        </mxCell>
        <mxCell id="3XJ-CpBbAdkrWe-ieAcc-32" value="" style="endArrow=none;html=1;rounded=0;exitX=0.997;exitY=0.552;exitDx=0;exitDy=0;exitPerimeter=0;" edge="1" parent="1" source="3XJ-CpBbAdkrWe-ieAcc-33">
          <mxGeometry width="50" height="50" relative="1" as="geometry">
            <mxPoint x="-1295" y="-470" as="sourcePoint" />
            <mxPoint x="-1530" y="-605" as="targetPoint" />
          </mxGeometry>
        </mxCell>
        <mxCell id="3XJ-CpBbAdkrWe-ieAcc-33" value="nome" style="text;html=1;align=center;verticalAlign=middle;resizable=0;points=[];autosize=1;strokeColor=none;fillColor=none;" vertex="1" parent="1">
          <mxGeometry x="-1650" y="-622" width="50" height="30" as="geometry" />
        </mxCell>
        <mxCell id="3XJ-CpBbAdkrWe-ieAcc-34" value="" style="endArrow=none;html=1;rounded=0;entryX=0;entryY=0.75;entryDx=0;entryDy=0;exitX=1.005;exitY=0.514;exitDx=0;exitDy=0;exitPerimeter=0;" edge="1" parent="1" source="3XJ-CpBbAdkrWe-ieAcc-35" target="3XJ-CpBbAdkrWe-ieAcc-4">
          <mxGeometry width="50" height="50" relative="1" as="geometry">
            <mxPoint x="-1273.56" y="-448" as="sourcePoint" />
            <mxPoint x="-1420" y="-436.24" as="targetPoint" />
          </mxGeometry>
        </mxCell>
        <mxCell id="3XJ-CpBbAdkrWe-ieAcc-35" value="senha" style="text;html=1;align=center;verticalAlign=middle;resizable=0;points=[];autosize=1;strokeColor=none;fillColor=none;" vertex="1" parent="1">
          <mxGeometry x="-1640" y="-581" width="60" height="30" as="geometry" />
        </mxCell>
        <mxCell id="3XJ-CpBbAdkrWe-ieAcc-36" value="" style="endArrow=none;html=1;rounded=0;entryX=-0.006;entryY=0.867;entryDx=0;entryDy=0;exitX=0.992;exitY=0.355;exitDx=0;exitDy=0;exitPerimeter=0;entryPerimeter=0;" edge="1" parent="1" source="3XJ-CpBbAdkrWe-ieAcc-37" target="3XJ-CpBbAdkrWe-ieAcc-4">
          <mxGeometry width="50" height="50" relative="1" as="geometry">
            <mxPoint x="-1295" y="-400" as="sourcePoint" />
            <mxPoint x="-1421" y="-426" as="targetPoint" />
          </mxGeometry>
        </mxCell>
        <mxCell id="3XJ-CpBbAdkrWe-ieAcc-37" value="telefone" style="text;html=1;align=center;verticalAlign=middle;resizable=0;points=[];autosize=1;strokeColor=none;fillColor=none;" vertex="1" parent="1">
          <mxGeometry x="-1640" y="-563" width="70" height="30" as="geometry" />
        </mxCell>
        <mxCell id="3XJ-CpBbAdkrWe-ieAcc-38" value="resgata" style="rhombus;whiteSpace=wrap;html=1;" vertex="1" parent="1">
          <mxGeometry x="-1342.5" y="-631" width="130" height="50" as="geometry" />
        </mxCell>
        <mxCell id="3XJ-CpBbAdkrWe-ieAcc-39" value="adota" style="rhombus;whiteSpace=wrap;html=1;" vertex="1" parent="1">
          <mxGeometry x="-1493.62" y="-490" width="130" height="50" as="geometry" />
        </mxCell>
        <mxCell id="3XJ-CpBbAdkrWe-ieAcc-40" value="" style="endArrow=none;html=1;rounded=0;entryX=1;entryY=0.5;entryDx=0;entryDy=0;exitX=0;exitY=0.5;exitDx=0;exitDy=0;" edge="1" parent="1" source="3XJ-CpBbAdkrWe-ieAcc-38" target="3XJ-CpBbAdkrWe-ieAcc-4">
          <mxGeometry width="50" height="50" relative="1" as="geometry">
            <mxPoint x="-1025" y="-368" as="sourcePoint" />
            <mxPoint x="-975" y="-418" as="targetPoint" />
          </mxGeometry>
        </mxCell>
        <mxCell id="3XJ-CpBbAdkrWe-ieAcc-41" value="" style="endArrow=none;html=1;rounded=0;entryX=1;entryY=0.5;entryDx=0;entryDy=0;exitX=0;exitY=0.5;exitDx=0;exitDy=0;" edge="1" parent="1" source="3XJ-CpBbAdkrWe-ieAcc-15" target="3XJ-CpBbAdkrWe-ieAcc-38">
          <mxGeometry width="50" height="50" relative="1" as="geometry">
            <mxPoint x="-1217.5" y="-583" as="sourcePoint" />
            <mxPoint x="-1136.5" y="-583" as="targetPoint" />
          </mxGeometry>
        </mxCell>
        <mxCell id="3XJ-CpBbAdkrWe-ieAcc-42" value="MODELO CONCEITUAL&#xa;Modelo de Entidade e Relacionamento (MER) (ou DER conceitual)" style="text;whiteSpace=wrap;fontStyle=1;labelBackgroundColor=light-dark(default, #fd0d0d);fillColor=#0050ef;fontColor=#ffffff;strokeColor=#001DBC;gradientColor=none;align=center;fontSize=16;" vertex="1" parent="1">
          <mxGeometry x="-1455" y="-1150" width="355" height="60" as="geometry" />
        </mxCell>
        <mxCell id="3XJ-CpBbAdkrWe-ieAcc-43" value="" style="endArrow=none;html=1;rounded=0;entryX=0.5;entryY=1;entryDx=0;entryDy=0;exitX=0;exitY=0;exitDx=0;exitDy=0;" edge="1" parent="1" source="3XJ-CpBbAdkrWe-ieAcc-39" target="3XJ-CpBbAdkrWe-ieAcc-4">
          <mxGeometry width="50" height="50" relative="1" as="geometry">
            <mxPoint x="-996" y="-538" as="sourcePoint" />
            <mxPoint x="-915" y="-538" as="targetPoint" />
          </mxGeometry>
        </mxCell>
        <mxCell id="3XJ-CpBbAdkrWe-ieAcc-44" value="" style="endArrow=none;html=1;rounded=0;exitX=0;exitY=0.5;exitDx=0;exitDy=0;entryX=0.715;entryY=0.788;entryDx=0;entryDy=0;entryPerimeter=0;" edge="1" parent="1" source="3XJ-CpBbAdkrWe-ieAcc-25" target="3XJ-CpBbAdkrWe-ieAcc-39">
          <mxGeometry width="50" height="50" relative="1" as="geometry">
            <mxPoint x="-997" y="-430" as="sourcePoint" />
            <mxPoint x="-1375" y="-427" as="targetPoint" />
          </mxGeometry>
        </mxCell>
        <mxCell id="3XJ-CpBbAdkrWe-ieAcc-45" value="&lt;div style=&quot;&quot;&gt;&lt;strong data-end=&quot;274&quot; data-start=&quot;260&quot; style=&quot;background-color: transparent;&quot;&gt;&lt;font&gt;&lt;font&gt;&lt;font style=&quot;color: light-dark(rgb(0, 102, 204), rgb(51, 153, 255)); font-size: 15px;&quot;&gt;DescriÃ§Ã£o:&lt;br&gt;&lt;/font&gt;&lt;/font&gt;&lt;/font&gt;&lt;br&gt;&lt;/strong&gt;&lt;/div&gt;&lt;font style=&quot;font-size: 14px;&quot;&gt;&lt;b style=&quot;&quot;&gt;resgata:&lt;/b&gt; Um usuÃ¡rio Ã© responsÃ¡vel por cadastrar/resgatar um ou mais pets.&lt;/font&gt;&lt;div&gt;&lt;font style=&quot;font-size: 14px;&quot;&gt;&lt;b&gt;adota:&amp;nbsp;&lt;/b&gt;Um usuÃ¡rio pode adotar vÃ¡rios pets, mas cada adoÃ§Ã£o tem um Ãºnico adotante.&lt;br&gt;&lt;/font&gt;&lt;div&gt;&lt;font style=&quot;font-size: 14px;&quot;&gt;&lt;b style=&quot;&quot;&gt;Ã©_adotado_em:&lt;/b&gt;&amp;nbsp;Um pet pode ser adotado uma Ãºnica vez.&lt;/font&gt;&lt;/div&gt;&lt;/div&gt;" style="text;html=1;align=left;verticalAlign=middle;resizable=0;points=[];autosize=1;strokeColor=none;fillColor=none;" vertex="1" parent="1">
          <mxGeometry x="-1640" y="-1058.18" width="560" height="100" as="geometry" />
        </mxCell>
        <mxCell id="3XJ-CpBbAdkrWe-ieAcc-46" value="Ã©_adotado_em" style="rhombus;whiteSpace=wrap;html=1;" vertex="1" parent="1">
          <mxGeometry x="-1203.62" y="-490" width="130" height="50" as="geometry" />
        </mxCell>
        <mxCell id="3XJ-CpBbAdkrWe-ieAcc-47" value="" style="endArrow=none;html=1;rounded=0;exitX=0.5;exitY=0;exitDx=0;exitDy=0;entryX=0.5;entryY=1;entryDx=0;entryDy=0;" edge="1" parent="1" source="3XJ-CpBbAdkrWe-ieAcc-28" target="3XJ-CpBbAdkrWe-ieAcc-25">
          <mxGeometry width="50" height="50" relative="1" as="geometry">
            <mxPoint x="-1321.38" y="-190" as="sourcePoint" />
            <mxPoint x="-1281.38" y="-305" as="targetPoint" />
          </mxGeometry>
        </mxCell>
        <mxCell id="3XJ-CpBbAdkrWe-ieAcc-48" value="id_usuario_adodante" style="text;html=1;align=center;verticalAlign=middle;whiteSpace=wrap;rounded=0;" vertex="1" parent="1">
          <mxGeometry x="-1315" y="-214.5" width="120" height="19.5" as="geometry" />
        </mxCell>
        <mxCell id="3XJ-CpBbAdkrWe-ieAcc-49" value="" style="endArrow=none;html=1;rounded=0;exitX=0;exitY=1;exitDx=0;exitDy=0;entryX=1;entryY=0.5;entryDx=0;entryDy=0;" edge="1" parent="1" source="3XJ-CpBbAdkrWe-ieAcc-46" target="3XJ-CpBbAdkrWe-ieAcc-25">
          <mxGeometry width="50" height="50" relative="1" as="geometry">
            <mxPoint x="-1248" y="-359" as="sourcePoint" />
            <mxPoint x="-1315" y="-448" as="targetPoint" />
          </mxGeometry>
        </mxCell>
        <mxCell id="3XJ-CpBbAdkrWe-ieAcc-50" value="" style="endArrow=none;html=1;rounded=0;exitX=1;exitY=0;exitDx=0;exitDy=0;entryX=0.5;entryY=1;entryDx=0;entryDy=0;" edge="1" parent="1" source="3XJ-CpBbAdkrWe-ieAcc-46" target="3XJ-CpBbAdkrWe-ieAcc-15">
          <mxGeometry width="50" height="50" relative="1" as="geometry">
            <mxPoint x="-1320" y="-362" as="sourcePoint" />
            <mxPoint x="-1387" y="-451" as="targetPoint" />
          </mxGeometry>
        </mxCell>
        <mxCell id="3XJ-CpBbAdkrWe-ieAcc-51" value="" style="group" connectable="0" vertex="1" parent="1">
          <mxGeometry x="-1410" y="-640" width="46.38000000000011" height="30" as="geometry" />
        </mxCell>
        <mxCell id="3XJ-CpBbAdkrWe-ieAcc-52" value="1:N" style="text;html=1;align=center;verticalAlign=middle;resizable=0;points=[];autosize=1;strokeColor=none;fillColor=none;" vertex="1" parent="3XJ-CpBbAdkrWe-ieAcc-51">
          <mxGeometry width="40" height="30" as="geometry" />
        </mxCell>
        <mxCell id="3XJ-CpBbAdkrWe-ieAcc-53" value="" style="triangle;whiteSpace=wrap;html=1;fillColor=#60a917;fontColor=#ffffff;strokeColor=#2D7600;" vertex="1" parent="3XJ-CpBbAdkrWe-ieAcc-51">
          <mxGeometry x="36.38000000000011" y="5" width="10" height="18" as="geometry" />
        </mxCell>
        <mxCell id="3XJ-CpBbAdkrWe-ieAcc-54" value="" style="group" connectable="0" vertex="1" parent="1">
          <mxGeometry x="-1456" y="-574" width="45" height="30" as="geometry" />
        </mxCell>
        <mxCell id="3XJ-CpBbAdkrWe-ieAcc-55" value="1:N" style="text;html=1;align=center;verticalAlign=middle;resizable=0;points=[];autosize=1;strokeColor=none;fillColor=none;" vertex="1" parent="3XJ-CpBbAdkrWe-ieAcc-54">
          <mxGeometry width="40" height="30" as="geometry" />
        </mxCell>
        <mxCell id="3XJ-CpBbAdkrWe-ieAcc-56" value="" style="triangle;whiteSpace=wrap;html=1;fillColor=#60a917;fontColor=#ffffff;strokeColor=#2D7600;" vertex="1" parent="3XJ-CpBbAdkrWe-ieAcc-54">
          <mxGeometry x="35" y="6" width="10" height="18" as="geometry" />
        </mxCell>
        <mxCell id="3XJ-CpBbAdkrWe-ieAcc-57" value="" style="group" connectable="0" vertex="1" parent="1">
          <mxGeometry x="-1150" y="-577" width="40" height="30" as="geometry" />
        </mxCell>
        <mxCell id="3XJ-CpBbAdkrWe-ieAcc-58" value="1:1" style="text;html=1;align=center;verticalAlign=middle;resizable=0;points=[];autosize=1;strokeColor=none;fillColor=none;" vertex="1" parent="3XJ-CpBbAdkrWe-ieAcc-57">
          <mxGeometry width="40" height="30" as="geometry" />
        </mxCell>
        <mxCell id="3XJ-CpBbAdkrWe-ieAcc-59" value="" style="triangle;whiteSpace=wrap;html=1;fillColor=#60a917;fontColor=#ffffff;strokeColor=#2D7600;" vertex="1" parent="3XJ-CpBbAdkrWe-ieAcc-57">
          <mxGeometry x="30" y="6" width="10" height="18" as="geometry" />
        </mxCell>
        <mxCell id="3XJ-CpBbAdkrWe-ieAcc-60" value="&lt;ul&gt;&lt;li&gt;Especifiquei a cardinalidade nÃ£o a multiplicidade&lt;/li&gt;&lt;li style=&quot;&quot;&gt;No modelo logico nao precisa especificar a chave primaria ou extrangeira&lt;/li&gt;&lt;/ul&gt;" style="text;html=1;align=left;verticalAlign=middle;resizable=0;points=[];autosize=1;strokeColor=none;fillColor=none;" vertex="1" parent="1">
          <mxGeometry x="-1653.62" y="-70" width="450" height="70" as="geometry" />
        </mxCell>
        <mxCell id="3XJ-CpBbAdkrWe-ieAcc-61" value="" style="endArrow=none;html=1;rounded=0;exitX=1;exitY=0.5;exitDx=0;exitDy=0;entryX=0;entryY=0.25;entryDx=0;entryDy=0;" edge="1" parent="1" source="3XJ-CpBbAdkrWe-ieAcc-62" target="3XJ-CpBbAdkrWe-ieAcc-4">
          <mxGeometry width="50" height="50" relative="1" as="geometry">
            <mxPoint x="-1584.72" y="-629.3499999999999" as="sourcePoint" />
            <mxPoint x="-1530" y="-547" as="targetPoint" />
          </mxGeometry>
        </mxCell>
        <mxCell id="3XJ-CpBbAdkrWe-ieAcc-62" value="tipo_usuario" style="text;html=1;align=center;verticalAlign=middle;whiteSpace=wrap;rounded=0;" vertex="1" parent="1">
          <mxGeometry x="-1645" y="-635" width="80" height="20" as="geometry" />
        </mxCell>
        <mxCell id="3XJ-CpBbAdkrWe-ieAcc-63" value="" style="endArrow=none;html=1;rounded=0;entryX=0.007;entryY=0.65;entryDx=0;entryDy=0;exitX=1;exitY=0.5;exitDx=0;exitDy=0;entryPerimeter=0;" edge="1" parent="1" source="3XJ-CpBbAdkrWe-ieAcc-64" target="3XJ-CpBbAdkrWe-ieAcc-4">
          <mxGeometry width="50" height="50" relative="1" as="geometry">
            <mxPoint x="-1560.56" y="-506.3499999999999" as="sourcePoint" />
            <mxPoint x="-1525" y="-520" as="targetPoint" />
          </mxGeometry>
        </mxCell>
        <mxCell id="3XJ-CpBbAdkrWe-ieAcc-64" value="email" style="text;html=1;align=center;verticalAlign=middle;whiteSpace=wrap;rounded=0;" vertex="1" parent="1">
          <mxGeometry x="-1645" y="-603" width="46.38" height="20" as="geometry" />
        </mxCell>
        <mxCell id="3XJ-CpBbAdkrWe-ieAcc-65" value="" style="endArrow=none;html=1;rounded=0;exitX=1;exitY=0.5;exitDx=0;exitDy=0;entryX=0.002;entryY=0.69;entryDx=0;entryDy=0;entryPerimeter=0;" edge="1" parent="1" source="3XJ-CpBbAdkrWe-ieAcc-66" target="3XJ-CpBbAdkrWe-ieAcc-4">
          <mxGeometry width="50" height="50" relative="1" as="geometry">
            <mxPoint x="-1550.56" y="-496.3499999999999" as="sourcePoint" />
            <mxPoint x="-1530" y="-600" as="targetPoint" />
          </mxGeometry>
        </mxCell>
        <mxCell id="3XJ-CpBbAdkrWe-ieAcc-66" value="idade" style="text;html=1;align=center;verticalAlign=middle;whiteSpace=wrap;rounded=0;" vertex="1" parent="1">
          <mxGeometry x="-1635" y="-587" width="46.38" height="20" as="geometry" />
        </mxCell>
        <mxCell id="3XJ-CpBbAdkrWe-ieAcc-67" value="animal" style="text;html=1;align=center;verticalAlign=middle;whiteSpace=wrap;rounded=0;" vertex="1" parent="1">
          <mxGeometry x="-975" y="-680" width="30" height="30" as="geometry" />
        </mxCell>
        <mxCell id="3XJ-CpBbAdkrWe-ieAcc-68" value="" style="endArrow=none;html=1;rounded=0;exitX=0;exitY=0.5;exitDx=0;exitDy=0;entryX=1.001;entryY=0.337;entryDx=0;entryDy=0;entryPerimeter=0;" edge="1" parent="1" source="3XJ-CpBbAdkrWe-ieAcc-67" target="3XJ-CpBbAdkrWe-ieAcc-15">
          <mxGeometry width="50" height="50" relative="1" as="geometry">
            <mxPoint x="-1190" y="-847" as="sourcePoint" />
            <mxPoint x="-1020" y="-612" as="targetPoint" />
          </mxGeometry>
        </mxCell>
        <mxCell id="3XJ-CpBbAdkrWe-ieAcc-69" value="" style="endArrow=none;html=1;rounded=0;entryX=0;entryY=1;entryDx=0;entryDy=0;exitX=0.992;exitY=0.355;exitDx=0;exitDy=0;exitPerimeter=0;" edge="1" parent="1" source="3XJ-CpBbAdkrWe-ieAcc-70" target="3XJ-CpBbAdkrWe-ieAcc-4">
          <mxGeometry width="50" height="50" relative="1" as="geometry">
            <mxPoint x="-1285" y="-390" as="sourcePoint" />
            <mxPoint x="-1520" y="-566" as="targetPoint" />
          </mxGeometry>
        </mxCell>
        <mxCell id="3XJ-CpBbAdkrWe-ieAcc-70" value="CPF" style="text;html=1;align=center;verticalAlign=middle;resizable=0;points=[];autosize=1;strokeColor=none;fillColor=none;" vertex="1" parent="1">
          <mxGeometry x="-1620" y="-547" width="50" height="30" as="geometry" />
        </mxCell>
      </root>
    </mxGraphModel>
  </diagram>
</mxfile>
